<svg width="103" height="103" viewBox="0 0 103 103" fill="none" xmlns="http://www.w3.org/2000/svg">
<ellipse opacity="0.06" cx="51.0964" cy="51.0964" rx="39.547" ry="32.7143" transform="rotate(-45 51.0964 51.0964)" fill="#22A9D3"/>
<path d="M41.7863 62.3H47.6463V45.44C47.6463 44.7867 47.6663 44.1 47.7062 43.38L43.5463 46.86C43.3729 47.0067 43.1929 47.1067 43.0063 47.16C42.8329 47.2133 42.6596 47.24 42.4863 47.24C42.2196 47.24 41.9729 47.1867 41.7463 47.08C41.5329 46.96 41.3729 46.8267 41.2663 46.68L39.7063 44.54L48.5263 37.04H52.5863V62.3H57.7863V66H41.7863V62.3ZM61.0694 63.28C61.0694 62.8667 61.1427 62.4733 61.2894 62.1C61.4494 61.7267 61.6627 61.4067 61.9294 61.14C62.2094 60.8733 62.536 60.66 62.9094 60.5C63.2827 60.34 63.6827 60.26 64.1094 60.26C64.5227 60.26 64.916 60.34 65.2894 60.5C65.6627 60.66 65.9827 60.8733 66.2494 61.14C66.516 61.4067 66.7294 61.7267 66.8894 62.1C67.0494 62.4733 67.1294 62.8667 67.1294 63.28C67.1294 63.7067 67.0494 64.1067 66.8894 64.48C66.7294 64.84 66.516 65.1533 66.2494 65.42C65.9827 65.6867 65.6627 65.8933 65.2894 66.04C64.916 66.2 64.5227 66.28 64.1094 66.28C63.6827 66.28 63.2827 66.2 62.9094 66.04C62.536 65.8933 62.2094 65.6867 61.9294 65.42C61.6627 65.1533 61.4494 64.84 61.2894 64.48C61.1427 64.1067 61.0694 63.7067 61.0694 63.28Z" fill="#22A9D3"/>
</svg>
