<svg width="103" height="103" viewBox="0 0 103 103" fill="none" xmlns="http://www.w3.org/2000/svg">
<ellipse opacity="0.06" cx="51.0964" cy="51.0964" rx="39.547" ry="32.7143" transform="rotate(-45 51.0964 51.0964)" fill="#22A9D3"/>
<path d="M48.4463 36.76C49.7796 36.76 50.9996 36.96 52.1063 37.36C53.2129 37.7467 54.1596 38.3 54.9463 39.02C55.7329 39.74 56.3463 40.6067 56.7863 41.62C57.2263 42.6333 57.4463 43.76 57.4463 45C57.4463 46.0667 57.2863 47.0533 56.9662 47.96C56.6596 48.8667 56.2396 49.7333 55.7063 50.56C55.1863 51.3867 54.5729 52.1867 53.8663 52.96C53.1596 53.7333 52.4196 54.52 51.6463 55.32L45.1263 61.98C45.7663 61.7933 46.3929 61.6533 47.0063 61.56C47.6196 61.4533 48.2063 61.4 48.7663 61.4H56.1863C56.7196 61.4 57.1396 61.5533 57.4463 61.86C57.7663 62.1533 57.9263 62.5467 57.9263 63.04V66H38.0863V64.36C38.0863 64.0267 38.1529 63.68 38.2863 63.32C38.4329 62.96 38.6596 62.6267 38.9663 62.32L47.7463 53.52C48.4796 52.7733 49.1329 52.06 49.7063 51.38C50.2929 50.7 50.7796 50.0267 51.1663 49.36C51.5663 48.6933 51.8663 48.02 52.0663 47.34C52.2796 46.6467 52.3863 45.92 52.3863 45.16C52.3863 44.4667 52.2863 43.86 52.0863 43.34C51.8863 42.8067 51.5996 42.36 51.2263 42C50.8529 41.64 50.4063 41.3733 49.8863 41.2C49.3796 41.0133 48.8063 40.92 48.1662 40.92C46.9796 40.92 45.9996 41.22 45.2263 41.82C44.4663 42.42 43.9329 43.2267 43.6263 44.24C43.4796 44.7467 43.2596 45.1133 42.9663 45.34C42.6729 45.5533 42.2996 45.66 41.8463 45.66C41.6463 45.66 41.4263 45.64 41.1863 45.6L38.5863 45.14C38.7863 43.7533 39.1729 42.54 39.7463 41.5C40.3196 40.4467 41.0329 39.5733 41.8863 38.88C42.7529 38.1733 43.7396 37.6467 44.8463 37.3C45.9663 36.94 47.1663 36.76 48.4463 36.76ZM61.0694 63.28C61.0694 62.8667 61.1427 62.4733 61.2894 62.1C61.4494 61.7267 61.6627 61.4067 61.9294 61.14C62.2094 60.8733 62.536 60.66 62.9094 60.5C63.2827 60.34 63.6827 60.26 64.1094 60.26C64.5227 60.26 64.916 60.34 65.2894 60.5C65.6627 60.66 65.9827 60.8733 66.2494 61.14C66.516 61.4067 66.7294 61.7267 66.8894 62.1C67.0494 62.4733 67.1294 62.8667 67.1294 63.28C67.1294 63.7067 67.0494 64.1067 66.8894 64.48C66.7294 64.84 66.516 65.1533 66.2494 65.42C65.9827 65.6867 65.6627 65.8933 65.2894 66.04C64.916 66.2 64.5227 66.28 64.1094 66.28C63.6827 66.28 63.2827 66.2 62.9094 66.04C62.536 65.8933 62.2094 65.6867 61.9294 65.42C61.6627 65.1533 61.4494 64.84 61.2894 64.48C61.1427 64.1067 61.0694 63.7067 61.0694 63.28Z" fill="#22A9D3"/>
</svg>
