<svg width="103" height="103" viewBox="0 0 103 103" fill="none" xmlns="http://www.w3.org/2000/svg">
<ellipse opacity="0.06" cx="51.0964" cy="51.0964" rx="39.547" ry="32.7143" transform="rotate(-45 51.0964 51.0964)" fill="#22A9D3"/>
<path d="M48.9062 36.76C50.2396 36.76 51.4396 36.9533 52.5063 37.34C53.5863 37.7133 54.5063 38.24 55.2663 38.92C56.0263 39.5867 56.6063 40.3733 57.0063 41.28C57.4196 42.1867 57.6263 43.1667 57.6263 44.22C57.6263 45.14 57.5196 45.9533 57.3063 46.66C57.1063 47.3533 56.8063 47.96 56.4062 48.48C56.0196 49 55.5396 49.44 54.9663 49.8C54.4063 50.16 53.7663 50.46 53.0463 50.7C54.7796 51.2467 56.0729 52.08 56.9263 53.2C57.7796 54.32 58.2063 55.7267 58.2063 57.42C58.2063 58.86 57.9396 60.1333 57.4063 61.24C56.8729 62.3467 56.1529 63.28 55.2463 64.04C54.3396 64.7867 53.2863 65.3533 52.0863 65.74C50.8996 66.1267 49.6396 66.32 48.3063 66.32C46.8529 66.32 45.5863 66.1533 44.5063 65.82C43.4263 65.4867 42.4863 64.9933 41.6862 64.34C40.8863 63.6867 40.2063 62.8867 39.6463 61.94C39.0863 60.9933 38.6063 59.9 38.2063 58.66L40.3863 57.76C40.7596 57.6 41.1396 57.52 41.5263 57.52C41.8729 57.52 42.1796 57.5933 42.4463 57.74C42.7263 57.8867 42.9396 58.1 43.0863 58.38C43.3263 58.8467 43.5863 59.3067 43.8663 59.76C44.1596 60.2133 44.5063 60.62 44.9063 60.98C45.3063 61.3267 45.7729 61.6133 46.3063 61.84C46.8529 62.0533 47.4996 62.16 48.2463 62.16C49.0863 62.16 49.8196 62.0267 50.4463 61.76C51.0729 61.48 51.5929 61.12 52.0063 60.68C52.4329 60.24 52.7463 59.7533 52.9463 59.22C53.1596 58.6733 53.2663 58.1267 53.2663 57.58C53.2663 56.8867 53.1929 56.26 53.0463 55.7C52.8996 55.1267 52.5929 54.64 52.1263 54.24C51.6596 53.84 50.9863 53.5267 50.1063 53.3C49.2396 53.0733 48.0729 52.96 46.6063 52.96V49.44C47.8196 49.4267 48.8263 49.3133 49.6263 49.1C50.4263 48.8867 51.0596 48.5933 51.5263 48.22C52.0063 47.8333 52.3396 47.3733 52.5263 46.84C52.7129 46.3067 52.8063 45.72 52.8063 45.08C52.8063 43.7067 52.4329 42.6733 51.6863 41.98C50.9396 41.2733 49.9196 40.92 48.6263 40.92C47.4529 40.92 46.4796 41.2333 45.7063 41.86C44.9329 42.4733 44.3929 43.2667 44.0863 44.24C43.9263 44.7467 43.7063 45.1133 43.4263 45.34C43.1463 45.5533 42.7796 45.66 42.3263 45.66C42.1129 45.66 41.8863 45.64 41.6463 45.6L39.0462 45.14C39.2462 43.7533 39.6329 42.54 40.2063 41.5C40.7796 40.4467 41.4929 39.5733 42.3463 38.88C43.2129 38.1733 44.1996 37.6467 45.3063 37.3C46.4263 36.94 47.6263 36.76 48.9062 36.76ZM61.0694 63.28C61.0694 62.8667 61.1427 62.4733 61.2894 62.1C61.4494 61.7267 61.6627 61.4067 61.9294 61.14C62.2094 60.8733 62.536 60.66 62.9094 60.5C63.2827 60.34 63.6827 60.26 64.1094 60.26C64.5227 60.26 64.916 60.34 65.2894 60.5C65.6627 60.66 65.9827 60.8733 66.2494 61.14C66.516 61.4067 66.7294 61.7267 66.8894 62.1C67.0494 62.4733 67.1294 62.8667 67.1294 63.28C67.1294 63.7067 67.0494 64.1067 66.8894 64.48C66.7294 64.84 66.516 65.1533 66.2494 65.42C65.9827 65.6867 65.6627 65.8933 65.2894 66.04C64.916 66.2 64.5227 66.28 64.1094 66.28C63.6827 66.28 63.2827 66.2 62.9094 66.04C62.536 65.8933 62.2094 65.6867 61.9294 65.42C61.6627 65.1533 61.4494 64.84 61.2894 64.48C61.1427 64.1067 61.0694 63.7067 61.0694 63.28Z" fill="#22A9D3"/>
</svg>
