<svg width="32" height="32" viewBox="0 0 32 32" fill="none" xmlns="http://www.w3.org/2000/svg">
<circle cx="16" cy="16" r="16" fill="#22A9D3"/>
<path d="M16.4219 19.3281C16.2812 19.4219 16.1406 19.4688 16 19.4688C15.8125 19.4688 15.7188 19.4219 15.625 19.3281L10.1406 13.7969C10.0469 13.7031 10 13.5625 10 13.4219C10 13.2344 10.0469 13.0938 10.1875 13L10.5156 12.6719C10.6094 12.5781 10.7031 12.5312 10.8906 12.5312C11.0312 12.5312 11.1719 12.5781 11.3125 12.6719L16 17.4531L20.6875 12.6719C20.7812 12.5312 20.9219 12.4844 21.1094 12.4844C21.25 12.4844 21.3906 12.5312 21.4844 12.6719L21.8594 13C21.9531 13.0938 22 13.2344 22 13.4219C22 13.5625 21.9531 13.7031 21.8594 13.7969L16.4219 19.3281Z" fill="white"/>
</svg>
