<svg width="13" height="15" viewBox="0 0 13 15" fill="none" xmlns="http://www.w3.org/2000/svg">
<path d="M4.79688 8.625C4.87891 8.625 4.96094 8.59766 5.01562 8.54297C5.07031 8.48828 5.125 8.40625 5.125 8.29688V7.20312C5.125 7.12109 5.07031 7.03906 5.01562 6.98438C4.96094 6.92969 4.87891 6.875 4.79688 6.875H3.70312C3.59375 6.875 3.51172 6.92969 3.45703 6.98438C3.40234 7.03906 3.375 7.12109 3.375 7.20312V8.29688C3.375 8.40625 3.40234 8.48828 3.45703 8.54297C3.51172 8.59766 3.59375 8.625 3.70312 8.625H4.79688ZM7.75 8.29688C7.75 8.40625 7.69531 8.48828 7.64062 8.54297C7.58594 8.59766 7.50391 8.625 7.42188 8.625H6.32812C6.21875 8.625 6.13672 8.59766 6.08203 8.54297C6.02734 8.48828 6 8.40625 6 8.29688V7.20312C6 7.12109 6.02734 7.03906 6.08203 6.98438C6.13672 6.92969 6.21875 6.875 6.32812 6.875H7.42188C7.50391 6.875 7.58594 6.92969 7.64062 6.98438C7.69531 7.03906 7.75 7.12109 7.75 7.20312V8.29688ZM10.375 8.29688C10.375 8.40625 10.3203 8.48828 10.2656 8.54297C10.2109 8.59766 10.1289 8.625 10.0469 8.625H8.95312C8.84375 8.625 8.76172 8.59766 8.70703 8.54297C8.65234 8.48828 8.625 8.40625 8.625 8.29688V7.20312C8.625 7.12109 8.65234 7.03906 8.70703 6.98438C8.76172 6.92969 8.84375 6.875 8.95312 6.875H10.0469C10.1289 6.875 10.2109 6.92969 10.2656 6.98438C10.3203 7.03906 10.375 7.12109 10.375 7.20312V8.29688ZM7.75 10.9219C7.75 11.0312 7.69531 11.1133 7.64062 11.168C7.58594 11.2227 7.50391 11.25 7.42188 11.25H6.32812C6.21875 11.25 6.13672 11.2227 6.08203 11.168C6.02734 11.1133 6 11.0312 6 10.9219V9.82812C6 9.74609 6.02734 9.66406 6.08203 9.60938C6.13672 9.55469 6.21875 9.5 6.32812 9.5H7.42188C7.50391 9.5 7.58594 9.55469 7.64062 9.60938C7.69531 9.66406 7.75 9.74609 7.75 9.82812V10.9219ZM5.125 10.9219C5.125 11.0312 5.07031 11.1133 5.01562 11.168C4.96094 11.2227 4.87891 11.25 4.79688 11.25H3.70312C3.59375 11.25 3.51172 11.2227 3.45703 11.168C3.40234 11.1133 3.375 11.0312 3.375 10.9219V9.82812C3.375 9.74609 3.40234 9.66406 3.45703 9.60938C3.51172 9.55469 3.59375 9.5 3.70312 9.5H4.79688C4.87891 9.5 4.96094 9.55469 5.01562 9.60938C5.07031 9.66406 5.125 9.74609 5.125 9.82812V10.9219ZM10.375 10.9219C10.375 11.0312 10.3203 11.1133 10.2656 11.168C10.2109 11.2227 10.1289 11.25 10.0469 11.25H8.95312C8.84375 11.25 8.76172 11.2227 8.70703 11.168C8.65234 11.1133 8.625 11.0312 8.625 10.9219V9.82812C8.625 9.74609 8.65234 9.66406 8.70703 9.60938C8.76172 9.55469 8.84375 9.5 8.95312 9.5H10.0469C10.1289 9.5 10.2109 9.55469 10.2656 9.60938C10.3203 9.66406 10.375 9.74609 10.375 9.82812V10.9219ZM13 3.8125C13 3.45703 12.8633 3.15625 12.6172 2.88281C12.3438 2.63672 12.043 2.5 11.6875 2.5H10.375V1.07812C10.375 0.996094 10.3203 0.914062 10.2656 0.859375C10.2109 0.804688 10.1289 0.75 10.0469 0.75H8.95312C8.84375 0.75 8.76172 0.804688 8.70703 0.859375C8.65234 0.914062 8.625 0.996094 8.625 1.07812V2.5H5.125V1.07812C5.125 0.996094 5.07031 0.914062 5.01562 0.859375C4.96094 0.804688 4.87891 0.75 4.79688 0.75H3.70312C3.59375 0.75 3.51172 0.804688 3.45703 0.859375C3.40234 0.914062 3.375 0.996094 3.375 1.07812V2.5H2.0625C1.67969 2.5 1.37891 2.63672 1.13281 2.88281C0.859375 3.15625 0.75 3.45703 0.75 3.8125V13.4375C0.75 13.8203 0.859375 14.1211 1.13281 14.3672C1.37891 14.6406 1.67969 14.75 2.0625 14.75H11.6875C12.043 14.75 12.3438 14.6406 12.6172 14.3672C12.8633 14.1211 13 13.8203 13 13.4375V3.8125ZM11.6875 13.2734C11.6875 13.3281 11.6602 13.3555 11.6328 13.3828C11.5781 13.4375 11.5508 13.4375 11.5234 13.4375H2.22656C2.17188 13.4375 2.14453 13.4375 2.11719 13.3828C2.0625 13.3555 2.0625 13.3281 2.0625 13.2734V5.125H11.6875V13.2734Z" fill="#FE5806"/>
</svg>
