<svg width="13" height="15" viewBox="0 0 13 15" fill="none" xmlns="http://www.w3.org/2000/svg">
<path d="M10.9375 2.5C11.293 2.5 11.5938 2.63672 11.8672 2.88281C12.1133 3.15625 12.25 3.45703 12.25 3.8125V13.4375C12.25 13.8203 12.1133 14.1211 11.8672 14.3672C11.5938 14.6406 11.293 14.75 10.9375 14.75H1.3125C0.929688 14.75 0.628906 14.6406 0.382812 14.3672C0.109375 14.1211 0 13.8203 0 13.4375V3.8125C0 3.45703 0.109375 3.15625 0.382812 2.88281C0.628906 2.63672 0.929688 2.5 1.3125 2.5H2.625V1.07812C2.625 0.996094 2.65234 0.914062 2.70703 0.859375C2.76172 0.804688 2.84375 0.75 2.95312 0.75H4.04688C4.12891 0.75 4.21094 0.804688 4.26562 0.859375C4.32031 0.914062 4.375 0.996094 4.375 1.07812V2.5H7.875V1.07812C7.875 0.996094 7.90234 0.914062 7.95703 0.859375C8.01172 0.804688 8.09375 0.75 8.20312 0.75H9.29688C9.37891 0.75 9.46094 0.804688 9.51562 0.859375C9.57031 0.914062 9.625 0.996094 9.625 1.07812V2.5H10.9375ZM10.7734 13.4375C10.8008 13.4375 10.8281 13.4375 10.8828 13.3828C10.9102 13.3555 10.9375 13.3281 10.9375 13.2734V5.125H1.3125V13.2734C1.3125 13.3281 1.3125 13.3555 1.36719 13.3828C1.39453 13.4375 1.42188 13.4375 1.47656 13.4375H10.7734Z" fill="#22A9D3"/>
</svg>
