<svg width="80" height="80" viewBox="0 0 80 80" fill="none" xmlns="http://www.w3.org/2000/svg">
<circle opacity="0.1" cx="40" cy="40" r="40" fill="#22A9D3"/>
<path d="M55.3438 27.1875C55.5 27.0312 55.6562 26.875 55.9688 26.875C56.2031 26.875 56.4375 27.0312 56.5938 27.1875L57.5312 28.0469C57.6875 28.2812 57.7656 28.5156 57.7656 28.75C57.7656 29.0625 57.6875 29.2188 57.5312 29.375L34.0938 52.8125C33.8594 53.0469 33.625 53.125 33.3906 53.125C33.1562 53.125 32.9219 53.0469 32.7656 52.8125L23.4688 43.5156C23.3125 43.3594 23.2344 43.2031 23.2344 42.8906C23.2344 42.6562 23.3125 42.4219 23.4688 42.1875L24.4062 41.3281C24.5625 41.1719 24.7188 41.0156 25.0312 41.0156C25.2656 41.0156 25.5 41.1719 25.6562 41.3281L33.3906 49.0625L55.3438 27.1875Z" fill="#22A9D3"/>
</svg>
