<svg width="48" height="48" viewBox="0 0 48 48" fill="none" xmlns="http://www.w3.org/2000/svg">
<circle opacity="0.1" cx="24" cy="24" r="24" fill="#EB5757"/>
<path opacity="0.5" d="M26.4922 23.75L33.7578 31.0156C33.8164 31.1328 33.875 31.25 33.875 31.3672C33.875 31.4844 33.8164 31.6016 33.7578 31.6602L32.4102 33.0078C32.293 33.125 32.1758 33.125 32.0586 33.125C31.9414 33.125 31.8242 33.125 31.7656 33.0078L24.5 25.7422L17.2344 33.0078C17.1172 33.125 17 33.125 16.8828 33.125C16.7656 33.125 16.6484 33.125 16.5898 33.0078L15.2422 31.6602C15.125 31.6016 15.125 31.4844 15.125 31.3672C15.125 31.25 15.125 31.1328 15.2422 31.0156L22.5078 23.75L15.2422 16.4844C15.125 16.4258 15.125 16.3086 15.125 16.1914C15.125 16.0742 15.125 15.957 15.2422 15.8398L16.5898 14.4922C16.6484 14.4336 16.7656 14.375 16.8828 14.375C17 14.375 17.1172 14.4336 17.2344 14.4922L24.5 21.7578L31.7656 14.4922C31.8242 14.4336 31.9414 14.375 32.0586 14.375C32.1758 14.375 32.293 14.4336 32.4102 14.4922L33.7578 15.8398C33.8164 15.957 33.875 16.0742 33.875 16.1914C33.875 16.3086 33.8164 16.4258 33.7578 16.4844L32.5273 17.7148L26.4922 23.75Z" fill="#EB5757"/>
</svg>
