<svg width="16" height="12" viewBox="0 0 16 12" fill="none" xmlns="http://www.w3.org/2000/svg">
<path d="M14.5 0C14.9062 0 15.25 0.15625 15.5625 0.4375C15.8438 0.75 16 1.09375 16 1.5V10.5C16 10.9375 15.8438 11.2812 15.5625 11.5625C15.25 11.875 14.9062 12 14.5 12H1.5C1.0625 12 0.71875 11.875 0.4375 11.5625C0.125 11.2812 0 10.9375 0 10.5V1.5C0 1.09375 0.125 0.75 0.4375 0.4375C0.71875 0.15625 1.0625 0 1.5 0H14.5ZM14.5 1.5H1.5V2.78125C2.21875 3.375 3.625 4.46875 5.71875 6.09375L6 6.34375C6.40625 6.71875 6.75 6.96875 7 7.09375C7.375 7.375 7.71875 7.5 8 7.5C8.25 7.5 8.59375 7.375 9 7.09375C9.25 6.96875 9.5625 6.71875 10 6.34375L10.2812 6.09375C12.3438 4.5 13.75 3.40625 14.5 2.78125V1.5ZM1.5 10.5H14.5V4.6875L10.875 7.5625C10.3438 8 9.90625 8.3125 9.59375 8.5C9.03125 8.84375 8.5 9 8 9C7.5 9 6.9375 8.84375 6.375 8.5C6.0625 8.3125 5.625 8 5.09375 7.5625L1.5 4.6875V10.5Z" fill="#22A9D3"/>
</svg>
