<svg width="186" height="187" viewBox="0 0 186 187" fill="none" xmlns="http://www.w3.org/2000/svg">
<ellipse opacity="0.06" cx="88.5408" cy="85.9877" rx="57.0912" ry="47.2273" transform="rotate(-45 88.5408 85.9877)" fill="#22A9D3"/>
<circle opacity="0.2" r="7.78591" transform="matrix(0.965926 0.258819 0.258819 -0.965926 114.294 39.8529)" fill="#22A9D3"/>
<path d="M118.589 26.5628L114.784 40.7645L104.387 30.3682L118.589 26.5628Z" stroke="#22A9D3" stroke-width="2"/>
<circle opacity="0.2" r="7.38545" transform="matrix(0.965926 0.258819 0.258819 -0.965926 157.172 122.986)" fill="#22A9D3"/>
<path d="M168.829 127.289C168.954 127.505 168.971 127.784 168.902 128.04C168.834 128.296 168.68 128.53 168.463 128.655L167.597 129.155C167.354 129.295 167.075 129.312 166.819 129.243C166.562 129.175 166.356 129.005 166.231 128.789L163.981 124.891L160.084 127.141C159.841 127.282 159.562 127.299 159.305 127.23C159.049 127.162 158.843 126.992 158.718 126.775L158.218 125.909C158.077 125.666 158.034 125.402 158.102 125.146C158.171 124.89 158.341 124.684 158.584 124.543L162.481 122.293L160.231 118.396C160.091 118.153 160.047 117.889 160.115 117.633C160.184 117.377 160.354 117.171 160.597 117.03L161.463 116.53C161.68 116.405 161.943 116.361 162.199 116.43C162.455 116.499 162.689 116.653 162.829 116.896L165.079 120.793L168.976 118.543C169.193 118.418 169.456 118.375 169.712 118.443C169.969 118.512 170.202 118.666 170.342 118.909L170.842 119.775C170.967 119.992 170.984 120.271 170.916 120.527C170.847 120.783 170.693 121.016 170.476 121.141L166.579 123.391L168.829 127.289Z" fill="#FE5806"/>
<circle opacity="0.2" r="5.94608" transform="matrix(0.965926 0.258819 0.258819 -0.965926 36.4452 63.9318)" fill="#22A9D3"/>
<circle r="5" transform="matrix(0.965926 0.258819 0.258819 -0.965926 30.7695 64.375)" stroke="#22A9D3" stroke-width="2"/>
</svg>
