<svg width="148" height="148" viewBox="0 0 148 148" fill="none" xmlns="http://www.w3.org/2000/svg">
<ellipse opacity="0.06" cx="73.7643" cy="73.7643" rx="57.0912" ry="47.2273" transform="rotate(-45 73.7643 73.7643)" fill="#22A9D3"/>
<g clip-path="url(#clip0)">
<path d="M69.1631 86.5627H54.8075V90.7934H69.1631V86.5627Z" fill="#22A9D3"/>
<path d="M86.2889 102.49H47.9445V32.9331H99.1334V63.2321" stroke="#344154" stroke-width="2" stroke-miterlimit="10"/>
<path d="M78.5445 39.7144H54.8075V63.2319H78.5445V39.7144Z" stroke="#344154" stroke-width="2" stroke-miterlimit="10"/>
<path d="M54.8075 73.4977H78.6075" stroke="#344154" stroke-width="2" stroke-miterlimit="10"/>
<path d="M54.8075 80.7766H78.6075" stroke="#344154" stroke-width="2" stroke-miterlimit="10"/>
<path d="M59.7816 58.3794H73.6964V44.6298C73.6964 44.6298 69.4149 54.3977 59.7816 58.3794Z" fill="#22A9D3"/>
<path d="M104.874 94.2052C112.446 91.0792 116.02 82.4794 112.856 74.9971C109.693 67.5148 100.989 63.9834 93.4173 67.1095C85.8451 70.2355 82.2713 78.8353 85.4349 86.3176C88.5985 93.7999 97.3016 97.3313 104.874 94.2052Z" stroke="#344154" stroke-width="2" stroke-miterlimit="10"/>
<path d="M99.1335 71.0089C104.485 71.0089 108.83 75.3018 108.83 80.5901" stroke="#344154" stroke-width="2" stroke-miterlimit="10" stroke-linecap="round"/>
<path d="M96.1111 98.2594V110.08C96.1111 111.76 97.4963 113.067 99.1333 113.067C100.833 113.067 102.156 111.698 102.156 110.08V98.2594" stroke="#344154" stroke-width="2" stroke-miterlimit="10"/>
</g>
<circle opacity="0.2" cx="31.011" cy="99.989" r="7.78591" transform="rotate(45 31.011 99.989)" fill="#22A9D3"/>
<path d="M21.6488 110.354L32.0452 99.9571L17.8435 96.1518L21.6488 110.354Z" stroke="#FE5806" stroke-width="2"/>
<circle opacity="0.2" cx="124.445" cy="95.5554" r="7.38545" transform="rotate(45 124.445 95.5554)" fill="#22A9D3"/>
<path d="M134 103.5C134.25 103.5 134.5 103.375 134.688 103.188C134.875 103 135 102.75 135 102.5V101.5C135 101.219 134.875 100.969 134.688 100.781C134.5 100.594 134.25 100.5 134 100.5H129.5V96C129.5 95.7188 129.375 95.4688 129.188 95.2812C129 95.0938 128.75 95 128.5 95H127.5C127.219 95 126.969 95.0938 126.781 95.2812C126.594 95.4688 126.5 95.7188 126.5 96V100.5H122C121.719 100.5 121.469 100.594 121.281 100.781C121.094 100.969 121 101.219 121 101.5V102.5C121 102.75 121.094 103 121.281 103.188C121.469 103.375 121.719 103.5 122 103.5H126.5V108C126.5 108.25 126.594 108.5 126.781 108.688C126.969 108.875 127.219 109 127.5 109H128.5C128.75 109 129 108.875 129.188 108.688C129.375 108.5 129.5 108.25 129.5 108V103.5H134Z" fill="#22A9D3"/>
<circle opacity="0.2" cx="24.9393" cy="26.5303" r="5.94608" transform="rotate(45 24.9393 26.5303)" fill="#22A9D3"/>
<circle cx="22.4852" cy="21.3934" r="5" transform="rotate(45 22.4852 21.3934)" stroke="#22A9D3" stroke-width="2"/>
<defs>
<clipPath id="clip0">
<rect width="68" height="82" fill="white" transform="translate(47 32)"/>
</clipPath>
</defs>
</svg>
