<svg width="148" height="148" viewBox="0 0 148 148" fill="none" xmlns="http://www.w3.org/2000/svg">
<ellipse opacity="0.06" cx="73.7643" cy="73.7643" rx="57.0912" ry="47.2273" transform="rotate(-45 73.7643 73.7643)" fill="#22A9D3"/>
<g clip-path="url(#clip0)">
<path d="M45.5127 92.8174H41.3163L37.9593 84.5259C37.7794 84.0521 38.0792 83.5782 38.6187 83.5782H104.382C104.861 83.5782 105.221 84.0521 105.041 84.5259L101.624 92.8174H97.4275" stroke="#344154" stroke-width="2" stroke-miterlimit="10" stroke-linecap="round" stroke-linejoin="round"/>
<path d="M97.4278 110.112V89.5013C97.4278 89.2644 97.248 89.0275 96.9482 89.0275H45.9925C45.7527 89.0275 45.5129 89.2052 45.5129 89.5013V110.112" stroke="#344154" stroke-width="2" stroke-miterlimit="10" stroke-linecap="round" stroke-linejoin="round"/>
<path d="M61.2788 44.1933V48.1022C61.2788 48.1022 71.9495 51.2411 81.5412 47.8652V44.1933" stroke="#344154" stroke-width="2" stroke-miterlimit="10" stroke-linecap="round" stroke-linejoin="round"/>
<path d="M86.9966 39.2186L71.4101 33.8883L55.5239 39.2186L71.4101 44.3713L81.4814 41.1138" stroke="#344154" stroke-width="2" stroke-miterlimit="10" stroke-linecap="round" stroke-linejoin="round"/>
<path d="M86.9966 39.2188V45.4374" stroke="#344154" stroke-width="2" stroke-miterlimit="10" stroke-linecap="round" stroke-linejoin="round"/>
<path d="M85.1382 47.3327C85.1382 46.3259 85.9775 45.4375 87.0565 45.4375C88.1356 45.4375 88.9748 46.2666 88.9748 47.3327" stroke="#344154" stroke-width="2" stroke-miterlimit="10" stroke-linecap="round" stroke-linejoin="round"/>
<path d="M92.5716 83.5788L91.6724 76.6494C91.3127 74.8134 90.2936 73.0959 88.7949 71.9114C87.8358 71.1415 86.8766 70.6677 85.9774 70.4308L78.6637 68.3579C78.4839 68.2986 78.364 68.2394 78.2441 68.1802C77.8844 67.9433 77.5847 67.5287 77.5247 67.0549L77.165 64.1529C79.2033 62.613 80.702 60.244 81.4213 57.5196C82.7402 57.4011 83.6994 55.9797 83.6994 54.1437C83.6994 52.4854 82.8601 51.1232 81.6611 50.8271" stroke="#344154" stroke-width="2" stroke-miterlimit="10" stroke-linecap="round" stroke-linejoin="round"/>
<path d="M61.1593 50.8867C60.0203 51.1829 59.2409 52.5451 59.2409 54.2034C59.2409 55.9801 60.2601 57.4608 61.519 57.5792C62.2383 60.2444 63.737 62.6134 65.7753 64.1533L65.4156 66.9961C65.3556 67.4699 65.1158 67.8845 64.6962 68.1214C64.5763 68.2398 64.3965 68.299 64.2766 68.299L57.0229 70.3719C56.0637 70.5496 55.1045 71.0826 54.1454 71.8526C52.6467 73.0963 51.6276 74.7546 51.2679 76.5906L50.3687 83.52" stroke="#344154" stroke-width="2" stroke-miterlimit="10" stroke-linecap="round" stroke-linejoin="round"/>
<path d="M71.5901 83.5781V78.2478" stroke="#344154" stroke-width="2" stroke-miterlimit="10" stroke-linecap="round" stroke-linejoin="round"/>
<path d="M73.0289 78.2482H69.9116C69.2522 78.2482 68.7126 77.7151 68.7126 77.0637V73.2732C68.7126 72.6217 69.2522 72.0887 69.9116 72.0887H73.0289C73.6883 72.0887 74.2278 72.6217 74.2278 73.2732V77.0637C74.2278 77.7151 73.6883 78.2482 73.0289 78.2482Z" stroke="#344154" stroke-width="2" stroke-miterlimit="10" stroke-linecap="round" stroke-linejoin="round"/>
<path d="M65.4753 66.9949L66.2547 67.1726C69.7316 67.8241 73.3285 67.8241 76.8055 67.1726L77.5848 67.0542" stroke="#344154" stroke-width="2" stroke-miterlimit="10" stroke-linecap="round" stroke-linejoin="round"/>
<path d="M93.8307 92.5812H49.1096V99.5699H93.8307V92.5812Z" fill="#22A9D3"/>
</g>
<circle opacity="0.2" cx="31.011" cy="99.989" r="7.78591" transform="rotate(45 31.011 99.989)" fill="#22A9D3"/>
<path d="M21.6488 110.354L32.0452 99.9571L17.8435 96.1518L21.6488 110.354Z" stroke="#FE5806" stroke-width="2"/>
<circle opacity="0.2" cx="124.445" cy="95.5554" r="7.38545" transform="rotate(45 124.445 95.5554)" fill="#22A9D3"/>
<path d="M134 103.5C134.25 103.5 134.5 103.375 134.688 103.188C134.875 103 135 102.75 135 102.5V101.5C135 101.219 134.875 100.969 134.688 100.781C134.5 100.594 134.25 100.5 134 100.5H129.5V96C129.5 95.7188 129.375 95.4688 129.188 95.2812C129 95.0938 128.75 95 128.5 95H127.5C127.219 95 126.969 95.0938 126.781 95.2812C126.594 95.4688 126.5 95.7188 126.5 96V100.5H122C121.719 100.5 121.469 100.594 121.281 100.781C121.094 100.969 121 101.219 121 101.5V102.5C121 102.75 121.094 103 121.281 103.188C121.469 103.375 121.719 103.5 122 103.5H126.5V108C126.5 108.25 126.594 108.5 126.781 108.688C126.969 108.875 127.219 109 127.5 109H128.5C128.75 109 129 108.875 129.188 108.688C129.375 108.5 129.5 108.25 129.5 108V103.5H134Z" fill="#22A9D3"/>
<circle opacity="0.2" cx="24.9395" cy="26.5303" r="5.94608" transform="rotate(45 24.9395 26.5303)" fill="#22A9D3"/>
<circle cx="22.4854" cy="21.3934" r="5" transform="rotate(45 22.4854 21.3934)" stroke="#22A9D3" stroke-width="2"/>
<defs>
<clipPath id="clip0">
<rect width="69" height="78" fill="white" transform="translate(37 33)"/>
</clipPath>
</defs>
</svg>
