<svg width="40" height="40" viewBox="0 0 40 40" fill="none" xmlns="http://www.w3.org/2000/svg">
<circle opacity="0.1" cx="20" cy="20" r="20" fill="#22A9D3"/>
<path d="M16.7708 12.75C16.4153 12.75 16.1145 12.8867 15.8411 13.1328C15.595 13.4062 15.4583 13.707 15.4583 14.0625V25.4375C15.4583 25.8203 15.595 26.1211 15.8411 26.3672C16.1145 26.6406 16.4153 26.75 16.7708 26.75H22.8958C23.2786 26.75 23.5793 26.6406 23.8254 26.3672C24.0989 26.1211 24.2083 25.8203 24.2083 25.4375V14.0625C24.2083 13.707 24.0989 13.4062 23.8254 13.1328C23.5793 12.8867 23.2786 12.75 22.8958 12.75H16.7708ZM19.8333 25.875C19.6145 25.875 19.3958 25.793 19.2317 25.6289C19.0676 25.4648 18.9583 25.2461 18.9583 25C18.9583 24.7812 19.0676 24.5625 19.2317 24.3984C19.3958 24.2344 19.6145 24.125 19.8333 24.125C20.0793 24.125 20.2981 24.2344 20.4622 24.3984C20.6262 24.5625 20.7083 24.7812 20.7083 25C20.7083 25.2461 20.6262 25.4648 20.4622 25.6289C20.2981 25.793 20.0793 25.875 19.8333 25.875ZM16.7708 22.9219V14.3906C16.7708 14.3086 16.8254 14.2266 16.8801 14.1719C16.9348 14.1172 17.0168 14.0625 17.0989 14.0625H22.5676C22.677 14.0625 22.759 14.1172 22.8137 14.1719C22.8684 14.2266 22.8958 14.3086 22.8958 14.3906V22.9219C22.8958 23.0312 22.8684 23.1133 22.8137 23.168C22.759 23.2227 22.677 23.25 22.5676 23.25H17.0989C17.0168 23.25 16.9348 23.2227 16.8801 23.168C16.8254 23.1133 16.7708 23.0312 16.7708 22.9219Z" fill="#22A9D3"/>
</svg>
