<svg width="148" height="148" viewBox="0 0 148 148" fill="none" xmlns="http://www.w3.org/2000/svg">
<ellipse opacity="0.06" cx="73.7643" cy="73.7643" rx="57.0912" ry="47.2273" transform="rotate(-45 73.7643 73.7643)" fill="#22A9D3"/>
<g clip-path="url(#clip0)">
<path d="M72.6262 90.8232L71.2301 85.7644C69.9503 81.235 66.809 77.4703 62.5625 75.4703L59.0722 73.8232C56.978 72.8232 55.4655 70.9997 54.8256 68.8232L53.1386 62.7644L53.255 61.7644C53.5458 59.7056 52.5569 57.7056 50.8699 56.6468L50.8118 56.588" stroke="#344154" stroke-width="2" stroke-miterlimit="10" stroke-linecap="round" stroke-linejoin="round"/>
<path d="M55.4072 80.7646C55.1745 80.8235 54.8837 80.8234 54.651 80.8234C50.6371 81.1764 46.6815 79.294 44.1801 76.1176C39.061 69.4705 35.1635 73.5882 35.1635 73.5882C35.1635 73.5882 39.41 78.7058 42.2604 83.7646C44.2964 87.3529 47.6704 90.1176 51.6261 91.1176C51.8587 91.1764 52.1496 91.2352 52.3823 91.294C55 91.8235 57.2105 93.5882 58.4322 95.8823" stroke="#344154" stroke-width="2" stroke-miterlimit="10" stroke-linecap="round" stroke-linejoin="round"/>
<path d="M39.0027 72.3527L37.2576 64.2939L42.3767 48.3527C42.3767 48.3527 45.3434 49.1174 44.5872 53.6468L42.2603 63.9998L43.831 70.5292" stroke="#344154" stroke-width="2" stroke-miterlimit="10" stroke-linecap="round" stroke-linejoin="round"/>
<path d="M44.2383 50.0587L45.6344 45.7646C45.6344 45.7646 49.4156 47.1763 48.1358 52.294L45.9834 63.5293L47.6704 69.6469" stroke="#344154" stroke-width="2" stroke-miterlimit="10" stroke-linecap="round" stroke-linejoin="round"/>
<path d="M48.3684 50.0588L48.5429 50.1764C50.3462 51.5294 51.2188 53.7647 50.8116 55.9411L49.59 62.5882L51.3352 68.7647" stroke="#344154" stroke-width="2" stroke-miterlimit="10" stroke-linecap="round" stroke-linejoin="round"/>
<path d="M70.8811 101.412L58.8977 105.118L55.6982 96.9999L72.6262 90.8234V94.9411" stroke="#344154" stroke-width="2" stroke-miterlimit="10" stroke-linecap="round" stroke-linejoin="round"/>
<path d="M57.0942 100.471L72.6261 94.9411" stroke="#344154" stroke-width="2" stroke-miterlimit="10" stroke-linecap="round" stroke-linejoin="round"/>
<path d="M79.374 90.8232L80.7701 85.7644C82.0499 81.235 85.1912 77.4703 89.4377 75.4703L92.928 73.8232C95.0222 72.8232 96.5347 70.9997 97.1746 68.8232L98.8616 62.7644L98.7452 61.7644C98.4544 59.7056 99.4433 57.7056 101.13 56.6468L101.188 56.588" stroke="#344154" stroke-width="2" stroke-miterlimit="10" stroke-linecap="round" stroke-linejoin="round"/>
<path d="M96.5928 80.7646C96.8255 80.8234 97.1163 80.8234 97.349 80.8234C101.363 81.1764 105.319 79.294 107.82 76.1176C112.939 69.4705 116.837 73.647 116.837 73.647C116.837 73.647 112.59 78.7646 109.74 83.8234C107.704 87.4117 104.33 90.1764 100.374 91.1764C100.141 91.2352 99.8504 91.294 99.6177 91.3529C97 91.8823 94.7895 93.647 93.5679 95.9411" stroke="#344154" stroke-width="2" stroke-miterlimit="10" stroke-linecap="round" stroke-linejoin="round"/>
<path d="M112.997 72.3528L114.742 64.2939L109.623 48.4116C109.623 48.4116 106.656 49.1763 107.413 53.7057L109.74 64.0586L108.169 70.5881" stroke="#344154" stroke-width="2" stroke-miterlimit="10" stroke-linecap="round" stroke-linejoin="round"/>
<path d="M107.762 50.0587L106.366 45.7646C106.366 45.7646 102.585 47.1763 103.864 52.294L106.017 63.5293L104.271 69.6469" stroke="#344154" stroke-width="2" stroke-miterlimit="10" stroke-linecap="round" stroke-linejoin="round"/>
<path d="M103.632 50.0588L103.457 50.1764C101.654 51.5294 100.781 53.7647 101.188 55.9411L102.41 62.5882L100.665 68.7647" stroke="#344154" stroke-width="2" stroke-miterlimit="10" stroke-linecap="round" stroke-linejoin="round"/>
<path d="M81.1192 101.412L93.1025 105.118L96.302 96.9999L79.374 90.8234V94.9411" stroke="#344154" stroke-width="2" stroke-miterlimit="10" stroke-linecap="round" stroke-linejoin="round"/>
<path d="M94.9059 100.471L79.374 94.9411" stroke="#344154" stroke-width="2" stroke-miterlimit="10" stroke-linecap="round" stroke-linejoin="round"/>
<path d="M71.9522 58.8003C71.7922 58.8003 71.6562 58.7523 71.5442 58.6563C71.4482 58.5443 71.4002 58.4083 71.4002 58.2483V55.1763H69.5522C69.3922 55.1763 69.2562 55.1283 69.1442 55.0323C69.0482 54.9203 69.0002 54.7843 69.0002 54.6243V54.0723C69.0002 53.9123 69.0482 53.7843 69.1442 53.6883C69.2562 53.5763 69.3922 53.5203 69.5522 53.5203H71.4002V52.1523H69.5522C69.3922 52.1523 69.2562 52.1043 69.1442 52.0083C69.0482 51.8963 69.0002 51.7603 69.0002 51.6003V50.7843C69.0002 50.6243 69.0482 50.4963 69.1442 50.4003C69.2562 50.2883 69.3922 50.2323 69.5522 50.2323H71.4002V42.5763C71.4002 42.4003 71.4482 42.2643 71.5442 42.1683C71.6562 42.0563 71.7922 42.0003 71.9522 42.0003H78.0482C79.8562 42.0003 81.2802 42.4403 82.3202 43.3203C83.3602 44.2003 83.8802 45.4723 83.8802 47.1363C83.8802 48.7683 83.3602 50.0163 82.3202 50.8803C81.2962 51.7283 79.8722 52.1523 78.0482 52.1523H73.8002V53.5203H78.4322C78.5922 53.5203 78.7202 53.5763 78.8162 53.6883C78.9282 53.7843 78.9842 53.9123 78.9842 54.0723V54.6243C78.9842 54.7843 78.9282 54.9203 78.8162 55.0323C78.7202 55.1283 78.5922 55.1763 78.4322 55.1763H73.8002V58.2483C73.8002 58.4083 73.7442 58.5443 73.6322 58.6563C73.5202 58.7523 73.3842 58.8003 73.2242 58.8003H71.9522ZM77.9282 50.2323C79.0962 50.2323 79.9762 49.9683 80.5682 49.4403C81.1762 48.9123 81.4802 48.1443 81.4802 47.1363C81.4802 46.1283 81.1842 45.3603 80.5922 44.8323C80.0002 44.2883 79.1122 44.0163 77.9282 44.0163H73.7762V50.2323H77.9282Z" fill="#22A9D3"/>
<path d="M93.3351 50.0588C93.3351 40.5882 85.7146 32.8823 76.3489 32.8823C66.9833 32.8823 59.3628 40.5882 59.3628 50.0588C59.3628 59.5294 66.9833 67.2353 76.3489 67.2353C85.7146 67.2353 93.3351 59.5294 93.3351 50.0588Z" stroke="#344154" stroke-width="2" stroke-miterlimit="10" stroke-linejoin="round"/>
</g>
<circle opacity="0.2" cx="31.011" cy="99.989" r="7.78591" transform="rotate(45 31.011 99.989)" fill="#22A9D3"/>
<path d="M21.6488 110.354L32.0452 99.9571L17.8435 96.1518L21.6488 110.354Z" stroke="#FE5806" stroke-width="2"/>
<circle opacity="0.2" cx="124.445" cy="95.5554" r="7.38545" transform="rotate(45 124.445 95.5554)" fill="#22A9D3"/>
<path d="M134 103.5C134.25 103.5 134.5 103.375 134.688 103.188C134.875 103 135 102.75 135 102.5V101.5C135 101.219 134.875 100.969 134.688 100.781C134.5 100.594 134.25 100.5 134 100.5H129.5V96C129.5 95.7188 129.375 95.4688 129.188 95.2812C129 95.0938 128.75 95 128.5 95H127.5C127.219 95 126.969 95.0938 126.781 95.2812C126.594 95.4688 126.5 95.7188 126.5 96V100.5H122C121.719 100.5 121.469 100.594 121.281 100.781C121.094 100.969 121 101.219 121 101.5V102.5C121 102.75 121.094 103 121.281 103.188C121.469 103.375 121.719 103.5 122 103.5H126.5V108C126.5 108.25 126.594 108.5 126.781 108.688C126.969 108.875 127.219 109 127.5 109H128.5C128.75 109 129 108.875 129.188 108.688C129.375 108.5 129.5 108.25 129.5 108V103.5H134Z" fill="#22A9D3"/>
<circle opacity="0.2" cx="24.9393" cy="26.5303" r="5.94608" transform="rotate(45 24.9393 26.5303)" fill="#22A9D3"/>
<circle cx="22.4852" cy="21.3934" r="5" transform="rotate(45 22.4852 21.3934)" stroke="#22A9D3" stroke-width="2"/>
<defs>
<clipPath id="clip0">
<rect width="84" height="74" fill="white" transform="translate(34 32)"/>
</clipPath>
</defs>
</svg>
