<svg width="18" height="13" viewBox="0 0 18 13" fill="none" xmlns="http://www.w3.org/2000/svg">
<path d="M15.3281 0.167969C15.3984 0.0976562 15.4688 0.0625 15.6094 0.0625C15.7148 0.0625 15.8203 0.0976562 15.9258 0.167969L16.9102 1.1875C16.9805 1.25781 17.0508 1.36328 17.0508 1.46875C17.0508 1.60938 16.9805 1.71484 16.9102 1.78516L6.36328 12.332C6.29297 12.4023 6.1875 12.4375 6.08203 12.4375C5.94141 12.4375 5.83594 12.4023 5.76562 12.332L1.08984 7.62109C0.984375 7.55078 0.949219 7.48047 0.949219 7.33984C0.949219 7.23438 0.984375 7.12891 1.08984 7.02344L2.07422 6.03906C2.14453 5.96875 2.25 5.89844 2.39062 5.89844C2.49609 5.89844 2.60156 5.96875 2.67188 6.03906L6.08203 9.44922L15.3281 0.167969Z" fill="#22A9D3"/>
</svg>
