<svg width="148" height="148" viewBox="0 0 148 148" fill="none" xmlns="http://www.w3.org/2000/svg">
<ellipse opacity="0.06" cx="73.7643" cy="73.7643" rx="57.0912" ry="47.2273" transform="rotate(-45 73.7643 73.7643)" fill="#22A9D3"/>
<g clip-path="url(#clip0)">
<path d="M61.028 85.6557C61.028 85.6557 52.1609 89.6179 42.9881 82.5354L46.963 80.8019C46.963 80.8019 44.8227 78.3255 41.5103 79.1675C41.5103 79.1675 38.7074 76.592 38.4017 74.6108L39.9815 74.1156C41.6122 73.5708 41.5612 71.2925 39.8795 70.8467C38.8603 70.5495 37.5863 70.5 36.1594 70.7972C36.1594 70.7972 32.1336 63.9623 34.6306 59.9505" stroke="#344154" stroke-width="2" stroke-miterlimit="10" stroke-linecap="round" stroke-linejoin="round"/>
<path d="M61.0281 85.6554C61.0281 85.6554 65.1049 77.0375 57.8176 68.1224L56.034 71.9856C56.034 71.9856 53.486 69.9054 54.3524 66.686C54.3524 66.686 51.7024 63.962 49.664 63.6648L49.1544 65.2002C48.5939 66.7851 46.2497 66.7356 45.7911 65.1011C45.4853 64.1106 45.4343 62.8724 45.7401 61.4856C45.7401 61.4856 38.7076 57.5728 34.5798 59.9997" stroke="#344154" stroke-width="2" stroke-miterlimit="10" stroke-linecap="round" stroke-linejoin="round"/>
<path d="M65.3598 89.8655L37.6375 62.9221" stroke="#344154" stroke-width="2" stroke-miterlimit="10" stroke-linecap="round" stroke-linejoin="round"/>
<path d="M84.9284 86.9433C82.2784 89.8655 80.8516 92.6886 80.0872 94.9669C79.068 98.0376 81.4121 101.207 84.7245 101.207H90.534H96.3434C99.6049 101.207 102 98.1367 101.032 95.0659C100.267 92.7381 98.8405 89.915 96.1396 86.8938" stroke="#344154" stroke-width="2" stroke-miterlimit="10" stroke-linecap="round" stroke-linejoin="round"/>
<path d="M96.7 86.9433H84.3677C83.3994 86.9433 82.635 86.2004 82.635 85.2594C82.635 84.3183 83.3994 83.5754 84.3677 83.5754H96.7C97.6683 83.5754 98.4327 84.3183 98.4327 85.2594C98.4327 86.2004 97.6683 86.9433 96.7 86.9433Z" stroke="#344154" stroke-width="2" stroke-miterlimit="10" stroke-linecap="round" stroke-linejoin="round"/>
<path d="M62.353 57.0778H89.4638V73.3726L88.8523 72.4316C84.8264 66.2901 78.7112 61.8325 71.5258 59.7523L62.353 57.0778Z" fill="#22A9D3"/>
<path d="M56.0339 62.9222V51.9269" stroke="#344154" stroke-width="2" stroke-miterlimit="10" stroke-linecap="round" stroke-linejoin="round"/>
<path d="M76.6728 95.7593H56.0339V89.8654" stroke="#344154" stroke-width="2" stroke-miterlimit="10" stroke-linecap="round" stroke-linejoin="round"/>
<path d="M56.0339 39.7429H88.3936C93.3367 39.7429 97.3116 43.6556 97.3116 48.4103V80.6037" stroke="#344154" stroke-width="2" stroke-miterlimit="10" stroke-linecap="round" stroke-linejoin="round"/>
<path d="M56.0338 39.7429C51.957 39.7429 48.6956 42.9622 48.6956 46.8749C48.6956 48.8561 49.5109 50.5896 50.8359 51.8773H89.4637C88.1387 50.5896 87.3233 48.8065 87.3233 46.8749C87.3233 46.2806 87.3743 45.7358 87.5272 45.191" stroke="#344154" stroke-width="2" stroke-miterlimit="10" stroke-linecap="round" stroke-linejoin="round"/>
</g>
<circle opacity="0.2" cx="31.011" cy="99.989" r="7.78591" transform="rotate(45 31.011 99.989)" fill="#22A9D3"/>
<path d="M21.6488 110.354L32.0452 99.9571L17.8435 96.1518L21.6488 110.354Z" stroke="#FE5806" stroke-width="2"/>
<circle opacity="0.2" cx="124.445" cy="95.5554" r="7.38545" transform="rotate(45 124.445 95.5554)" fill="#22A9D3"/>
<path d="M134 103.5C134.25 103.5 134.5 103.375 134.688 103.188C134.875 103 135 102.75 135 102.5V101.5C135 101.219 134.875 100.969 134.688 100.781C134.5 100.594 134.25 100.5 134 100.5H129.5V96C129.5 95.7188 129.375 95.4688 129.188 95.2812C129 95.0938 128.75 95 128.5 95H127.5C127.219 95 126.969 95.0938 126.781 95.2812C126.594 95.4688 126.5 95.7188 126.5 96V100.5H122C121.719 100.5 121.469 100.594 121.281 100.781C121.094 100.969 121 101.219 121 101.5V102.5C121 102.75 121.094 103 121.281 103.188C121.469 103.375 121.719 103.5 122 103.5H126.5V108C126.5 108.25 126.594 108.5 126.781 108.688C126.969 108.875 127.219 109 127.5 109H128.5C128.75 109 129 108.875 129.188 108.688C129.375 108.5 129.5 108.25 129.5 108V103.5H134Z" fill="#22A9D3"/>
<circle opacity="0.2" cx="24.9395" cy="26.5303" r="5.94608" transform="rotate(45 24.9395 26.5303)" fill="#22A9D3"/>
<circle cx="22.4854" cy="21.3934" r="5" transform="rotate(45 22.4854 21.3934)" stroke="#22A9D3" stroke-width="2"/>
<defs>
<clipPath id="clip0">
<rect width="69" height="63" fill="white" transform="translate(33 39)"/>
</clipPath>
</defs>
</svg>
