<svg width="24" height="18" viewBox="0 0 24 18" fill="none" xmlns="http://www.w3.org/2000/svg">
<path d="M23.1875 6.375C23.1875 2.3125 20.5625 0 17.625 0C14.9375 0 12.6875 2.25 12.6875 5C12.6875 7.625 14.5625 9.5 16.9375 9.5C17.4375 9.5 17.9375 9.375 18.1875 9.25C17.625 11.5 15.3125 14.125 13.3125 15.1875L16.75 18C20.625 15.25 23.1875 11.0625 23.1875 6.375ZM10.5 6.375C10.5 2.3125 7.8125 0 4.875 0C2.25 0 0 2.25 0 5C0 7.625 1.875 9.5 4.25 9.5C4.6875 9.5 5.25 9.375 5.4375 9.25C4.9375 11.5 2.625 14.125 0.625001 15.1875L4.0625 18C7.875 15.25 10.5 11.0625 10.5 6.375Z" fill="#22A9D3"/>
</svg>
