<svg width="60" height="60" viewBox="0 0 60 60" fill="none" xmlns="http://www.w3.org/2000/svg">
<mask id="mask0" mask-type="alpha" maskUnits="userSpaceOnUse" x="0" y="0" width="60" height="60">
<circle cx="30" cy="30" r="30" fill="white"/>
</mask>
<g mask="url(#mask0)">
<circle cx="30" cy="30" r="30" fill="#D3EEF6"/>
<path d="M50.3728 50.4337C49.3227 49.4364 38.6452 46.0526 35.2354 45.1146L34.327 40.0568C37.2766 38.5846 38.8457 36.21 39.2587 34.9871C39.8486 33.2061 39.766 17.4983 39.766 17.4983C35.5422 12.203 24.1686 12.203 19.9447 17.4983C19.9447 17.4983 19.9211 32.7906 20.5111 34.5715C20.9122 35.7588 22.269 38.1928 25.0298 39.7956L24.1686 45.1146C20.6408 46.0763 10.8836 49.4482 9.84533 50.4337C6.73056 53.4138 8.16996 65.2867 8.16996 65.2867H30.1149H52.0599C52.0481 65.2867 53.4875 53.4019 50.3728 50.4337Z" fill="#FEDECA"/>
<path d="M20.0274 26.7116C20.0274 26.7116 18.3402 25.4056 18.588 26.7116C18.8239 28.0176 19.0009 30.9858 20.1453 30.8078L20.0274 26.7116Z" fill="#FEE1CC"/>
<path d="M39.7071 26.4386C39.7071 26.4386 41.4061 25.1207 41.1583 26.4267C40.9224 27.7327 40.7454 30.7009 39.601 30.5228L39.7071 26.4386Z" fill="#FEE1CC"/>
<path d="M54.9624 55.4084C53.995 51.0273 52.5792 50.6592 51.069 50.0419C46.8334 48.3084 36.557 45.4589 36.557 45.4589C36.557 45.4589 36.8991 51.0748 29.7257 51.1104C23.8029 51.1342 22.859 45.4827 22.859 45.4827C22.859 45.4827 12.5591 48.3084 8.32345 50.0419C6.80146 50.6592 5.39745 51.0273 4.42999 55.4084C3.46252 59.7895 4.42999 65.3697 4.42999 65.3697H54.9624C54.9624 65.3816 55.9299 59.7895 54.9624 55.4084Z" fill="#FE5806"/>
<path d="M22.2691 12.6542C22.2691 12.6542 14.6473 10.992 20.0274 26.7235L20.1808 21.4757C20.1808 21.4757 19.5791 16.4772 28.0031 16.5603L22.2691 12.6542Z" fill="#2E2E2F"/>
<path d="M23.0478 13.5209C24.4518 14.5063 34.6102 19.6592 39.4357 28.9081L40.3914 23.3635C40.3914 23.3635 41.465 17.2134 40.1672 13.8652C38.8812 10.517 34.9995 6.63462 25.6434 9.76906C25.6434 9.76906 24.0742 9.6622 23.1304 8L23.6023 10.517C23.6023 10.517 21.7971 10.2084 21.16 9.34164C21.16 9.35351 21.6084 12.5117 23.0478 13.5209Z" fill="#414042"/>
<path d="M39.6009 27.994C39.6009 27.994 38.0199 35.5807 37.4536 35.462C36.8873 35.3433 36.6277 35.3433 36.3209 35.9251C36.0142 36.5068 35.1647 38.7033 33.9849 37.7772C32.805 36.8393 33.1118 34.6665 29.9498 35.9132H29.8908C26.7289 34.6665 26.9766 36.8511 25.785 37.7891C24.6051 38.7271 23.7439 36.5187 23.4489 35.9369C23.1421 35.3552 22.8826 35.3552 22.3163 35.4739C21.7499 35.5926 20.4167 29.9411 20.4167 29.9411C20.4167 29.9411 19.9802 26.4149 20.0392 26.7354C20.0982 27.0441 20.1572 35.462 21.1718 37.8485C21.3606 38.2878 27.0474 42.4314 27.5901 42.562C28.0267 42.6689 28.9469 42.7282 29.8908 42.7163C30.8347 42.7282 31.755 42.6689 32.1915 42.562C32.7342 42.4314 38.48 38.0503 38.7278 37.2192C40.2498 32.0664 39.5301 28.3027 39.6009 27.994C39.6599 27.6734 39.6009 27.994 39.6009 27.994ZM27.4132 38.264C27.4132 38.264 29.6902 36.4831 32.3331 38.264H27.4132Z" fill="#2E2E2F"/>
</g>
</svg>
