<svg width="60" height="60" viewBox="0 0 60 60" fill="none" xmlns="http://www.w3.org/2000/svg">
<mask id="mask0" mask-type="alpha" maskUnits="userSpaceOnUse" x="0" y="0" width="60" height="60">
<circle cx="30" cy="30" r="30" fill="white"/>
</mask>
<g mask="url(#mask0)">
<circle cx="30" cy="30" r="30" fill="#D3EEF6"/>
<path d="M21.2233 24.4432L19.3074 47.2505L42.5979 48.7493L38.5413 24.4432H21.2233Z" fill="#4F2613"/>
<path d="M27.1529 35.6372L26.2324 41.6849L27.0459 49.8184C27.1101 50.4473 27.5917 51.16 28.159 51.3382C29.2615 51.6945 31.1025 52.0719 32.7615 51.4535C33.3073 51.2438 33.7462 50.4473 33.7997 49.8184L34.3991 41.6849L33.1789 35.6372H27.1529Z" fill="#F8D8B2"/>
<path d="M48.0031 46.6216C45.3486 43.8651 34.3884 41.8422 34.3884 41.8422C34.3884 41.8422 32.4618 43.7917 29.9358 43.7078C27.474 43.6345 26.2324 41.8422 26.2324 41.8422C26.2324 41.8422 14.2125 43.6659 11.5688 46.4225C9.16055 48.9485 9 59 9 59H51C51 59 50.422 49.1371 48.0031 46.6216Z" fill="#FE5806"/>
<path d="M21.7798 17.316C21.7798 17.316 20.1743 26.0364 20.3135 27.7029C20.5275 30.3966 24.5199 38.8969 30.289 38.8969C36.6361 38.8969 39.9756 29.3694 39.6759 27.0007C39.4725 25.3446 38.4557 17.3055 38.4557 17.3055C34.4205 12.6413 25.8043 12.6413 21.7798 17.316Z" fill="#F8D8B2"/>
<path d="M26.2324 18.3012C26.2324 18.3012 16.4602 29.4743 25.3547 50.4264C25.3547 50.4264 16.9633 49.7765 16.2141 43.7079C14.9082 33.1322 15.3792 17.3265 22.7324 13.4589L26.2324 18.3012Z" fill="#A35E45"/>
<path d="M22.5076 13.4588C22.5076 13.4588 24.1345 17.7771 26.2323 18.3012C39.162 21.5189 37.4923 29.6 36.2079 50.4263C36.2079 50.4263 42.3195 48.9065 43.7859 44.3367C45.1452 40.1127 45.2736 26.6967 41.7415 18.6471C35.7797 5.09478 23.3103 10.8804 22.5076 13.4588Z" fill="#723E2A"/>
<path d="M31.0382 32.933C30.4709 32.4614 30.2568 33.0798 30 33.0798C29.7217 33.0798 29.4969 32.4299 28.9082 32.9435C28.7048 33.1217 27.4633 34.3375 27.0244 34.3585C27.0244 34.3585 27.0565 34.369 27.11 34.3899C27.11 34.3899 28.266 35.2913 29.8822 35.3228C31.4984 35.3542 32.9755 34.3585 32.9755 34.3585C32.5367 34.348 31.263 33.1217 31.0382 32.933ZM29.9571 34.3061C29.5076 34.2956 28.951 34.3899 28.448 34.3899C28.9296 34.2013 29.6039 33.9602 30 33.9916C30.3853 33.9602 31.0703 34.2013 31.5519 34.3899C30.9633 34.3899 30.3425 34.3061 29.9571 34.3061Z" fill="#C9322B"/>
</g>
</svg>
